<?xml version="1.0" encoding="UTF-8" standalone="no"?>
<svg
   xmlns:svg="http://www.w3.org/2000/svg"
   xmlns="http://www.w3.org/2000/svg"
   version="1.1"
   width="528.75"
   height="382.375"
   id="svg4661">
  <defs
     id="defs4663" />
  <g
     transform="translate(-75.625,-298.31754)"
     id="layer1">
    <path
       d="m 107.375,420.63004 -2.875,8.21875 -8.1875,0 6.5625,4.90625 -2.46875,8.1875 6.96875,-4.90625 6.5625,4.90625 -2.46875,-8.1875 6.5625,-4.90625 -8.21875,0 -2.4375,-8.21875 z m 57.78125,2.46875 -2.4375,8.1875 -8.625,0 6.96875,4.9375 -2.875,8.59375 6.96875,-5.3125 6.96875,5.3125 -2.4375,-8.59375 6.96875,-4.9375 -8.625,0 -2.875,-8.1875 z m 52.46875,18.84375 -2.875,8.625 -9,0 7.375,4.90625 -2.875,8.625 7.375,-5.34375 7,5.34375 -2.875,-8.625 6.96875,-4.90625 -8.625,0 -2.46875,-8.625 z m -130.34375,19.6875 -2.46875,7.78125 -8.1875,0 6.5625,4.9375 -2.46875,7.78125 6.5625,-4.90625 6.96875,4.90625 -2.875,-7.78125 6.96875,-4.9375 -8.1875,0 -2.875,-7.78125 z m 174.625,2.875 c -59.44595,0 -107.8125,47.96187 -107.8125,107.8125 0,59.4375 48.36655,107.375 107.8125,107.375 59.42905,0 107.81255,-47.9375 107.81255,-107.375 l -110.25005,0 49.18745,-97.15625 c -14.3492,-6.97232 -29.94726,-10.65625 -46.74995,-10.65625 z m 233.71875,14.9375 c -2.7407,0.0794 -8.8221,0.53058 -13.4062,2.75 -14.1133,6.37373 -13.8126,20.9375 -13.8126,20.9375 l -1.125,29.09375 c 0,0 0.4361,22.70928 0.5626,24.96875 0.8682,15.7741 9.7973,25.9687 28.2187,25.9687 18.3793,0 29.6875,-9.9687 29.6875,-9.9687 l 0,-45.65625 -29.5312,0 0,12.5 14.3437,0 0,27.37495 c 0,0 -5.6395,2.9376 -13.75,2.9376 -14.5179,0 -13.9375,-12.87505 -13.9375,-12.87505 l -0.4062,-28.09375 0.6874,-23.84375 c 0,0 0.2929,-7.23276 3.9688,-10.34375 3.2712,-2.76532 5.6105,-3.27282 9.75,-3.28125 4.4852,0 6.7586,1.01551 7.8125,1.65625 6.0365,3.6337 6.4687,11.78125 6.4687,11.78125 l 0,3.59375 15,0 -0.2812,-9.0625 c 0,0 -0.2557,-2.82854 -1.5625,-6.125 -2.1836,-4.45992 -6.2821,-9.55854 -12.3437,-12.0625 -6.0703,-2.49553 -14.9063,-2.25 -14.9063,-2.25 0,0 -0.5239,-0.0265 -1.4375,0 z m -70.375,1.5625 0,99.5938 15.0312,0 0,-99.5938 -15.0312,0 z m 122.9062,0.125 0,12.34375 38.9063,0 -40.3125,73.21875 0,14.1875 56.4688,0 0,-12.625 -41.125,0 41.2812,-73.90625 0,-13.21875 -55.2188,0 z M 100,507.53629 l -2.46875,7.78125 -8.1875,0 6.96875,4.53125 -2.875,7.78125 6.5625,-4.5 6.96875,4.5 -2.875,-7.78125 6.5625,-4.53125 -7.78125,0 -2.875,-7.78125 z m 215.5938,3.28125 -2.8438,8.625 -9.0312,0 7.375,5.3125 -2.875,8.1875 7.375,-5.3125 6.9687,5.3125 -2.8437,-8.1875 7.375,-5.3125 -9.0313,0 -2.4687,-8.625 z m 31.1562,33.21875 -2.4375,8.1875 -9.0313,0 7.375,5.34375 -2.875,8.1875 6.9688,-4.9375 7.375,4.9375 -2.8438,-8.1875 7.375,-5.34375 -9.0312,0 -2.875,-8.1875 z m -218.46875,0.8125 -2.46875,7.375 -7.78125,0 6.15625,4.9375 -2.46875,7.375 6.5625,-4.53125 6.5625,4.53125 -2.46875,-7.375 6.15625,-4.9375 -7.8125,0 -2.4375,-7.375 z"
       id="path4116"
       style="fill:#0066b3;fill-opacity:1;fill-rule:nonzero;stroke:none" />
    <path
       d="M 434.0625,299.31754 C 306.9842,455.49068 207.8,623.52594 219.6875,633.78624 c 8.6079,7.3686 81.9898,-62.7275 135.2813,-114.37495 -45.9145,25.41903 -67.2217,39.78627 -84.43755,52.49995 0.81779,-0.8262 108.19115,-186.10157 163.53125,-272.5937 z m -165.59375,172.5625 -2.875,8.1875 -8.59375,0 6.96875,5.34375 -2.875,8.1875 7.375,-4.90625 6.96875,4.90625 -2.46875,-8.1875 6.96875,-5.34375 -8.59375,0 -2.875,-8.1875 z"
       id="path4120"
       style="fill:#c2cd23;fill-opacity:1;fill-rule:nonzero;stroke:none" />
  </g>
</svg>
